<svg id="xeho91-avatar" width="200" height="200" role="img" aria-labelledby="xeho91-avatar_title xeho91-avatar_description" xmlns="http://www.w3.org/2000/svg" viewBox="0 0 630 630" preserveAspectRatio="xMinYMin meet"><title id="xeho91-avatar_title">xeho91&apos;s avatar</title><desc id="xeho91-avatar_description">It contains logomark - which is a letter &quot;X&quot; in
	the circle with a frame. The letter painted in the style of quickly using a
	paintbrush on the wall.</desc><defs><circle id="xeho91-avatar_background" cx="315" cy="315" r="315"/><symbol id="xeho91-avatar_frame"><path d="
					M 315 0
					A 315 315 0 0 0 0 315
					A 315 315 0 0 0 315 630
					A 315 315 0 0 0 630 315
					A 315 315 0 0 0 315 0
					z
					M 315 20
					A 295 295 0 0 1 610 315
					A 295 295 0 0 1 315 610
					A 295 295 0 0 1 20 315
					A 295 295 0 0 1 315 20
					z
				"/></symbol><filter id="xeho91-avatar_shadow" filterUnits="userSpaceOnUse"><feDropShadow dx="0" dy="5" stdDeviation="10" flood-color="hsla(22deg, 85%, 8%, 1)" flood-opacity="0.75"/></filter><symbol id="xeho91-avatar_logomark"><g id="char_x" transform="matrix(2.6178896,0,0,2.6178896,-444.98648,-588.03971)"><path id="x-left" d="M 333.73 371.03 c -8.4034 -10.383 -26.402 -14.893 -31.261 -32.608 -4.578 -9.3715 -10.197 -18.04 -16.169 -27.488 -4.3535 -9.3352 -14.754 -17.041 -22.544 -20.657 -22.311 -15.726 -17.293 9.4181 -10.126 22.772 3.7943 5.9376 10.343 20.313 14.614 27.261.98434 14.749 19.929 15.853 21.02 23.176 13.978 5.4246 19.883 8.6044 36.112 12.397 5.4478.61722 11.273 2.3163 8.3541 -4.8514 z"/><path id="x-right" d="M 262.32 331.95 c -4.8902 11.736 -8.3487 19.142 4.0422 4.0421 -2.8181 -7.5383 -11.18 -11.129 -4.0422 -4.0421 z m -3.2339 -.26949 c -3.6304 -1.326 -1.3924 4.1996 0 0 z m -8.6235 16.439 c 11.62 -14.247 -.5767 -8.5769 0 .00025 z m 0 7.8154 c 3.2151.22952 -.92811 -4.2974 0 0 z m -5.9288 1.617 c -2.536 -11.38 -4.3645 12.283 0 0 z m -2.6949 9.7016 c 3.9376 1.1186 -.29761 -2.9945 0 0 z m 15.361 -9.7016 c -4.4033 -.9471.68883 4.0956 0 0 z m -1.617 -11.049 c -2.9468 -.24971.84392 3.519 0 0 z m -7.8154.53898 c -5.749 -.89961 1.1896 6.543 0 0 z m -9.4322 19.673 c 4.49 -1.4663 -5.7767 -4.1865 0 0 z m 46.622 -59.557 c .95357 6.4349 1.9387 -5.5422 0 0 z m 18.326 -27.488 c -4.1999 -1.0564 -.0746 2.6891 0 0 z m 37.19 17.248 c 6.6763.96805 1.5377 -4.4474 0 0 z m -103.75 68.992 c -2.9469 -.24972.84391 3.519 0 0 z m 72.491 -33.956 c -2.9468 -.24971.84392 3.519 0 0 z m 3.2339 -4.3119 c 2.0433 3.3925 2.4015 -4.7413 0 0 z m -39.885 56.863 c -3.3263.69812 1.1088 1.6837 0 0 z m -1.078.53899 c -.81463 -.73428 -.6744 1.1881 0 0 z m 52.012 -71.685 c -6.4912 10.168 5.8843 -.38028 0 0 z m -15.091 23.715 c 7.1464 -2.1838 4.6778 -13.737 0 .00038 z m -22.368 22.368 c -6.5497 9.9436 -12.668 23.061 -18.595 23.985 7.7455 2.4143 4.0068 19.839 -3.11 22.55 -.0641 3.1627 3.785 13.871 -.93232 13.561 -10.101 4.6353 -18.046 -5.8349 -23.075 -8.4216 -6.2736 -11.183 1.1958 -24.2 1.5159 -34.158 8.8369 -12.89 18.909 -17.794 19.302 -23.143 2.8826 -7.623 3.3939 14.664 -7.9837 20.717 7.6271 -7.069 13.409 -14.792 18.325 -26.41 -15.527 10.614 -4.6886 -19.64 2.1559 1.6168 15.164 5.305 -2.1369 26.985 10.51 9.1627 -3.8032 -2.3285.90121.21696 1.8868.53924 z m -32.339 6.4679 c 6.0284.4228 1.0592 -4.4843 0 0 z m -4.0424 7.8154 c 6.7589 -2.2428 -.65352 -11.181 0 -.31724 z m -5.1203 10.51 c 8.6712 -4.6715 -.19905 -6.8153 0 0 z m -.80847 1.8864 c 4.1999 1.0564.0746 -2.6891 0 0 z m -2.4254 3.5034 c 3.2151.2295 -.92812 -4.2974 0 0 z m 1.3474 21.829 c -3.2151 -.2295.92812 4.2974 0 0 z m 0 -4.0424 c -3.2151 -.2295.92812 4.2974 0 0 z m 0 -5.3898 c -7.4851 -4.1204 3.0255 6.6569 0 0 z m 2.6949 -12.127 c 1.2981 -8.4761 -6.9498 1.9203 0 0 z m .80847 12.127 c -3.2151 -.2295.92812 4.2974 0 0 z m 0 -10.51 c 3.0099.6977 -.0873 -3.7296 0 0 z m 2.6949 18.326 c 2.4714 -.0292 -.46654 -5.9285 0 0 z m 0 -3.2339 c .25519 -7.2431 -4.8726 -1.096 0 0 z m 0 -8.6235 c -3.2151 -.22952.92811 4.2974 0 0 z m -1.8864 4.0424 c 3.6086 1.5423 1.6082 -4.4891 0 0 z m 2.6949 14.822 c -1.2097 -2.9481 -4.3938 -.72684 0 0 z m .80847 -28.297 c -3.7425 1.5247 1.4033 5.6049 0 0 z m 4.3119 -12.127 c -10.302.90995 -6.4633 22.454 -2.7286 3.234l2.7286 -3.2339 z m 5.1203 -7.546 c -3.2151 -.2295.92812 4.2974 0 0 z m 13.475 -11.318 c 3.7226 1.3764.47998 -4.4779 0 0 z m -2.4254 -2.6949 c 3.9369 1.229.44111 -2.7201 0 0 z m -5.1203 7.0066 c 4.5808 1.1648 -.50581 -3.9173 0 0 z m -3.5034 6.4679 c -3.2151 -.2295.92812 4.2974 0 0 z m 5.1203 28.835 c -2.9468 -.24971.84392 3.519 0 0 z m 3.2339 -36.381 c -2.832 -1.7957 -8.0152 8.6064 -6.7373 15.361 5.6501 -7.897 3.2412 -7.3523 6.7373 -15.361 z m .80847 -.26949 c 8.8212.0387 -3.2566 -5.5782 0 0 z m 1.8864 16.169 c -3.7332 -1.5112 -1.3894 4.5194 0 0 z m 2.9644 -6.7373 c -8.8841 10.36.21166 5.4377 0 0 z m 34.495 -39.346 c -2.6926 -4.4555 -2.1899 5.4172 0 0 z m -16.169 -27.488 c -1.7456 -3.8394 -4.0748 5.201 0 0 z m 52.012 -16.439 c 14.798 2.3663 -12.186 8.1708 -11.318 10.241 10.089 -3.3753 -6.5582 13.073 -3.2339 5.7941 -5.5844 6.4232 -13.162 18.714 -20.751 17.113 -2.831 -8.0833 -.66409 20.384 -8.0848 13.031 -4.7632 2.8943 -22.887 -21.042 -1.5478 -25.654 12.172 -10.323 10.777 -16.64 -1.679 -2.0753 -2.5189 13.013 -18.254 7.4313 -10.247 6.6129 6.1822 -1.843 24.981 -23.276 5.9288 -11.049 -2.2613 -3.2263 -11.685 9.7962 -8.8932 -1.617 1.8579 -12.239 19.885 -18.11 24.254 -25.871 12.326 -10.552 29.363 2.5592 31.344 6.7966 -8.8888 1.7262 19.888 6.2115 4.2288 6.6781 z m -56.054 11.858 c -3.8134 -6.1766 -3.1154 3.3087 0 0 z m .53898 -4.0424 c -3.2151 -.2295.92812 4.2974 0 0 z m 5.1203 -2.9644 c -4.1999 -1.0564 -.0746 2.6891 0 0 z m 4.3119 2.9644 c -9.058 1.745 1.594 4.886 0 0 z m 5.1203 0 c -4.3232 -1.1284 1.3406 5.7914 0 0 z m 2.4254 -6.1983 c -4.6872 -3.47 -1.9025 11.724 0 0 z m -10.241 26.14 c 3.5952 1.5064 1.5809 -4.3979 0 0 z m -1.617 4.0424 c 4.7994.63091 -.59427 -4.9141 -1.0443 -.60636 z m 7.0066 1.3474 c -10.953 2.0179 -8.9851 14.843 0 0 z m 20.212 -22.098 c 6.4977 -.5442 -1.4417 -3.762 0 0 z m -1.617 -15.631 c -7.2929 -5.1368 -20.091 13.397 0 0 z m -4.3119 19.403 c -.72558 6.7013 8.0395 -6.9131 0 0 z m -10.241 13.205 c -4.1999 -1.0564 -.0746 2.6891 0 0 z m 1.8864 -2.1559 c -5.9016.41026.49273 3.4192 0 0 z m 7.546 -8.8935 c -8.163 3.8953 -11.528 14.863 0 0 z m -2.4254 10.78 c -3.9784 -.89806 -.46267 2.0168 0 0 z m 1.3474.26949 c -3.2151 -.2295.92812 4.2974 0 0 z m 2.4254 -4.3119 c 6.9226 -9.4151 -6.887 11.232 0 0 z m 8.0848 -2.1559 c -2.1608 -2.5812 -5.4473 1.2765 0 0 z m 2.6949 -7.0066 c -10.574 1.3566 -5.858 10.015 0 0 z m 7.546 -1.617 c 2.6814 -.84116 -1.1106 -1.4918 0 0 z m -4.3119 -1.078 c -4.4428.31396 1.023 3.1608 0 0 z m 3.2339 -22.907 c -6.7742 -2.7714 -3.3583 5.5885 0 0 z m -32.608 61.983 c 2.0793 11.909 10.071 -2.1397 0 0 z m -51.203 40.154 c 4.4033.9471 -.68883 -4.0956 0 0 z m -22.368 13.744 c 1.5402 5.2747 3.8568 -1.8512 0 0 z m 3.2339 -6.4679 c 8.1516 -10.376 -7.9069 -4.6972 -.80847 -1.078 z m 4.3119 -8.8935 c 22.031 -4.4049 -11.274 -3.013 0 0 z m 4.5814.26949 c .20111 -3.1747 -4.7901 1.0553 0 0 z m -6.1983 1.8864 c -1.1801 5.5622 5.9418.17001 0 0 z m -4.0424 16.708 c 4.4033.9471 -.68884 -4.0956 0 0 z m 47.43 -15.9 c .89672 6.269 5.5646 -7.5537 0 0 z m -46.892 10.78 c 1.248 7.0948 3.9764 -6.4251 0 0 z m 45.005 -6.7373 c -1.2844 3.8459 4.8568.3042 0 0 z m 4.5814 -6.7373 c 1.9354 3.1416 1.8429 -5.0705 0 0 z m -3.5034 1.8864 c -4.4947 -.51633 -2.2573 4.5006 0 0 z m -40.962 14.013 c -7.2786.41783 1.325 11.135 0 0 z"/></g></symbol></defs><use href="#xeho91-avatar_background" fill="hsla(297deg, 84%, 10%, 1)"/><use href="#xeho91-avatar_frame" fill="hsla(27deg, 72%, 59%, 1)" filter="url(#xeho91-avatar_shadow)"/><use href="#xeho91-avatar_logomark" fill="hsla(27deg, 72%, 59%, 1)" filter="url(#xeho91-avatar_shadow)"/></svg>
